<?xml version="1.0" encoding="UTF-8"?>
<svg id="Layer_2" data-name="Layer 2" xmlns="http://www.w3.org/2000/svg" viewBox="0 0 723.17 154.13">
  <defs>
    <style>
      .cls-1 {
        fill: #fff;
      }
    </style>
  </defs>
  <g id="Layer_2-2" data-name="Layer 2">
    <g id="Layer_1-2" data-name="Layer 1-2">
      <polygon class="cls-1" points="559.7 152.89 551.45 152.91 544.22 138.01 541.68 152.86 532.99 152.83 537.66 125.59 546.42 125.49 553.25 139.57 555.69 125.51 564.36 125.52 559.7 152.89"/>
      <path class="cls-1" d="M705.3,145.14c-1.86,8.08-14.76,10.12-23.26,7.08-3.57-1.28-5.53-4.66-4.46-8.35l9-.57c-.3,1.8-.29,3.67.57,4.49,1.24,1.19,3.25,1.41,4.93.9,1.13-.34,2.37-1.61,2.6-2.69.19-.89-.98-2.62-1.93-3l-8.47-3.37c-1.65-.66-3.36-2.68-3.76-4.15-.53-1.96.13-4.38,1.58-5.97,4.87-5.32,15.96-6.02,21.56-2.6,2.23,1.36,3.64,3.92,2.61,6.66l-8.66.73c.26-1.65.31-3.24-.53-4.08s-2.65-1.16-3.95-.9c-1.26.25-2.68,1.5-2.84,2.61-.15,1.06,1.23,2.48,2.35,2.92l9.19,3.56c2.7,1.04,4.13,3.83,3.46,6.73h.01Z"/>
      <path class="cls-1" d="M645.68,148.16h-9.17l-2.29,4.77-9.08-.16,15.5-27.2,9.87-.05,5.61,27.33-9.84.04-.6-4.72h0ZM644.83,142.57l-1.09-9.13-4.46,9.18,5.55-.06h0Z"/>
      <polygon class="cls-1" points="600.01 152.87 590.43 152.84 594.1 131.64 585.6 131.55 587.41 125.51 613.69 125.52 611.9 131.59 603.66 131.61 600.01 152.87"/>
      <polygon class="cls-1" points="465.35 152.85 455.65 152.85 459.45 131.64 450.78 131.5 452.75 125.51 478.8 125.52 477.16 131.56 468.93 131.65 465.35 152.85"/>
      <polygon class="cls-1" points="508.08 152.8 498.43 152.87 503.19 125.53 512.72 125.51 508.08 152.8"/>
      <polygon class="cls-1" points="661.71 110.04 633.09 110.06 612.84 52.15 603.04 110.06 589.29 109.99 603.77 22.22 630.71 22.22 651.74 80.49 662.55 22.24 677.2 22.23 661.71 110.04"/>
      <path class="cls-1" d="M404.44,104.36c-4.83,7.97-16.82,7.88-26.11,6.22l-14.7-2.62c-5.65-1.01-11.22-.18-16.52,2.07-3.13-2.73-4.25-6.57-4.77-10.4-.99-7.26,1.69-13.43,7.16-18.17l39.87-34.51c-11.31-3.06-23.69-4.55-33.95.1-3.2-4.29-4.59-9.37-3.99-14.54.59-5.06,3.91-9.15,8.93-10.5,4.42-1.19,9.15-1.37,13.71-.44l11.45,2.33c8.14,1.65,16.24,2.15,24.44-.56,6.06,7.48,7.1,18.98-.51,25.43l-29.87,24.59-14.26,12.12c12.51,2.69,25.65,4.95,37.38-1.54,4.89,5.79,5.61,14.02,1.72,20.44l.02-.02Z"/>
      <path class="cls-1" d="M484.77,98c-1.74,12.87-14.94,14.93-27.08,12.79l-15.21-2.68c-5.95-1.05-11.82-.56-17.45,1.93-3.24-2.83-4.46-6.86-4.94-11.06-.73-6.35,1.45-12.28,6.39-16.56l40.96-35.47c-11.41-3.13-23.59-4.57-34.12.07-3.25-4.19-4.6-9.41-3.94-14.63s4.45-9.53,9.81-10.64c4.36-.91,8.94-1.07,13.39-.16l14.34,2.93c7.19,1.47,14.31.97,21.19-1.14,6.34,7.75,6.68,19.28-.94,25.58l-35.11,29-8.75,7.56c12.5,2.58,25.83,4.89,37.33-1.61,3.6,3.99,4.82,8.91,4.13,14.09h0Z"/>
      <path class="cls-1" d="M265.02,57.88c4.56-5.77,6.23-13.61,4.61-20.57-1.73-7.42-8.95-8.9-16.5-7.25l-7.22,43.24-5.93,36.77-28.23-.03,16.09-87.08c11.39-1.15,22.63-2.13,34.05-2.19,6.83-.03,13.36.53,19.66,2.42,12.63,4.05,15.95,16.89,12.76,29.12-2.18,8.34-8.09,14.61-16.23,17.5-9.06,3.21-22.04,2.75-27.46-5.45,5.7.03,10.72-1.82,14.41-6.48h-.01Z"/>
      <path class="cls-1" d="M576.68,86.31c-9.97,19.97-31.94,28.95-53.34,24.59-11.56-2.35-19.91-11.06-22.13-22.84-2.83-15.03-.49-30.9,6.57-44.53,10.31-19.93,32.12-26.92,53.37-22.43,10.4,2.2,18.16,9.72,20.68,20.21,3.6,15,1.76,31.17-5.14,45h0ZM543.23,97.99c3.08-3.88,4.86-8.16,6.27-12.86,4-13.31,8.47-38.07,4.46-50.14-1.26-3.78-4.94-5.76-8.78-4.46-5.66,1.91-9.19,10.53-11.04,16.95-3.93,13.63-6.14,27.54-5.99,41.81.04,3.6.53,7.81,2.81,10.39,3.41,3.85,9.15,2.23,12.25-1.68h.02Z"/>
      <polygon class="cls-1" points="324.59 110.08 297.87 110 312.48 22.22 339.2 22.25 324.59 110.08"/>
      <polygon class="cls-1" points="707.03 110.06 678.61 110.03 691.16 47.92 696.18 22.21 723.17 22.25 707.03 110.06"/>
      <g>
        <path class="cls-1" d="M139.49,37.06l-8.46,4.78c-18.1-16.48-41.76-20.4-63.92-10.14-7.52,3.48-14.14,8.11-19.18,14.73-14.52,19.1-11.17,49.35.91,69.54-5.68.57-10.95,1.51-16.4,3.24-2.2-4.6-3.91-9.24-5.42-14.3l-4.08.66c-3.55.17-3.05-2.13-4.22-4.85l-8.43,1.77c-.75.16-2.31-.7-2.47-1.56-3.04-16.07-2-32.44,3.37-47.89C19.7,28.59,38.55,11.24,63.15,3.64c32.52-10.05,66.49,1.2,87.97,27.37l-2.63,1.34C132.47,13.11,108.46,1.58,83.33,3.01c-18.43,1.05-35.8,7.99-49.46,20.38-13.44,12.19-21.43,28.91-23.85,46.83-1.35,9.97-1.47,19.39.62,29.28l7.42-1.68c-.23-1.6-.68-3.58.03-4.78,1.09-1.83,3.42-1.98,5.71-2.32-3.12-26.26,5.13-52.38,28.88-66.15,14.64-8.49,31.61-11.42,48.35-8.62,14.85,2.43,28.06,9.42,38.46,21.1h0Z"/>
        <path class="cls-1" d="M.02,154.12c5.23-13.61,16.4-23.63,29.88-28.43,10.1-3.6,20.45-4.78,31.17-4.47,10.73.07,22.11,3.67,31.9,4.08,11.39.48,22.47-1.01,33.35-4.12,13.09-3.75,23.93-11.6,31.69-22.71,3.11-4.45,5.28-9,7.85-14.19,4.5,25.85-7.25,44.78-31.75,53.26-10.31,3.57-20.78,5.17-31.76,5.41-20.91.47-37.43-5.48-57.63-5.34-16.59-.3-31.68,5.35-44.72,16.52h.02Z"/>
        <path class="cls-1" d="M146.81,96.12c.15-10.01.19-19.42-1.72-28.99l-2.5-8.01,6.67-3.85,1.83,6.22c1.69-.21,3.87-.57,5.46-.04,1.44.47,1.77,2.36,1.84,4.18l6.31-1.05c-1.44-5.57-3.44-10.07-5.69-15.06l2.56-1.4c2.63,5.56,4.66,10.88,6.31,16.77.29,1.02-.89,2.25-1.72,2.39l-7.41,1.29.26,3.15c.11,1.34-.36,3.01-1.95,3.29l-4.24.75c-.73,6.86-1.23,15.35-6,20.35h0Z"/>
        <path class="cls-1" d="M104.96,92.23l-20.22-36.64c-.85-1.54-.32-3.17,1.09-3.94l9.55-5.22c4.23-2.31,9.07-2.45,13.16.51,3.98,2.88,5.85,8.66,9.76,6.46l49.93-28.03c4.66-2.62,9.73-4.12,12.43-.11s-.6,8.38-5.25,10.98l-51.03,28.56c-1.88,1.05-2.02,3.64-1.16,5.36,3.53,7.03.84,14.95-5.97,18.64l-8.51,4.6c-1.1.59-3.03.23-3.79-1.16h0ZM174.07,32.33c.79-.54,1.02-2.59.48-3.28-1.79-2.3-6.88.99-10.28,3.36-.82.57-1.22,2.2-.83,2.99,1.39,2.82,7-.58,10.63-3.07ZM96.82,50.25l-2.56,1.42,19.19,34.57,2.56-1.42s-19.19-34.57-19.19-34.57ZM91.21,53.42l-2.58,1.43,19.12,34.51,2.58-1.43s-19.12-34.51-19.12-34.51Z"/>
        <path class="cls-1" d="M69.19,89.49c-.8-.26-1.7-1.21-2.04-1.99l9.93-5.46-10.63,3.62-.88-1.38,15.25-7.95c-5.87,1.46-10.85,3.53-16.52,5.51-.29-.12-.75-.97-.45-1.16l3.48-2.26-4.37,1.1-1.32-1.42,17.09-9.58-18.69,7.07-.22-.78,4.27-2.64-4.84,1.35-1.04-2.33c4.49-1.6,8.46-2.67,12.43-4.94,4.12-2.36,7.93-5.03,11.91-7.9l19.18,34.53c-7.57,5.35-15.23,10.54-23.32,15.12-.7-.91-.21-1.35.68-2.17l-1.89.46-2.15-2.65,8.6-4.79c-3.22.61-6.13,1.83-9.17,2.94-.55-.22-1.15-1.15-1.51-2.01l13.16-7.09c-5.06,1.21-9.27,3.1-14.15,4.9-.25-.42-.57-1.33-.69-1.98l17.74-9.85c-6.59,2.08-12.32,4.73-18.62,7.27l-.73-.57c-.18-.14.28-.79.43-.96l10.73-6.09-11.65,4.09h0Z"/>
      </g>
    </g>
  </g>
</svg>