<?xml version="1.0" encoding="UTF-8"?>
<svg id="Layer_2" data-name="Layer 2" xmlns="http://www.w3.org/2000/svg" viewBox="0 0 499.75 437.6">
  <defs>
    <style>
      .cls-1 {
        letter-spacing: -.03em;
      }

      .cls-2 {
        letter-spacing: -.01em;
      }

      .cls-3 {
        font-family: AmsiProCondensed-SemiBold, 'Amsi Pro Cond';
        font-weight: 600;
      }

      .cls-3, .cls-4, .cls-5, .cls-6 {
        fill: #fff;
      }

      .cls-3, .cls-6 {
        font-size: 16.82px;
      }

      .cls-7 {
        letter-spacing: 0em;
      }

      .cls-5 {
        font-size: 27.24px;
      }

      .cls-5, .cls-6 {
        font-family: AmsiProCondensed-Bold, 'Amsi Pro Cond';
        font-weight: 700;
      }

      .cls-8 {
        letter-spacing: -.03em;
      }

      .cls-9 {
        font-size: 21.44px;
      }

      .cls-9, .cls-10 {
        fill: #df1f26;
        font-family: AmsiProCondensed-Black, 'Amsi Pro Cond';
        font-weight: 800;
      }

      .cls-11 {
        letter-spacing: 0em;
      }

      .cls-12 {
        letter-spacing: -.04em;
      }

      .cls-13 {
        letter-spacing: 0em;
      }

      .cls-14 {
        letter-spacing: -.02em;
      }

      .cls-15 {
        letter-spacing: -.02em;
      }

      .cls-16 {
        letter-spacing: 0em;
      }

      .cls-17 {
        letter-spacing: 0em;
      }

      .cls-18 {
        letter-spacing: .01em;
      }

      .cls-19 {
        letter-spacing: 0em;
      }

      .cls-10 {
        font-size: 21.44px;
      }

      .cls-20 {
        letter-spacing: 0em;
      }
    </style>
  </defs>
  <g id="Layer_1-2" data-name="Layer 1">
    <text class="cls-6" transform="translate(203.79 166.13)"><tspan x="0" y="0">Solici</tspan><tspan class="cls-1" x="30.31" y="0">t</tspan><tspan x="34.82" y="0">e seu o</tspan><tspan class="cls-16" x="74.38" y="0">r</tspan><tspan x="79.16" y="0">çamen</tspan><tspan class="cls-8" x="116.82" y="0">t</tspan><tspan x="121.33" y="0">o</tspan><tspan x="25.54" y="15.42">ago</tspan><tspan class="cls-15" x="46.91" y="15.42">r</tspan><tspan x="51.45" y="15.42">a mesmo</tspan></text>
    <text class="cls-3" transform="translate(210.33 294.64)"><tspan class="cls-19" x="0" y="0">A</tspan><tspan class="cls-1" x="7.59" y="0">t</tspan><tspan class="cls-13" x="11.86" y="0">endemos Criciúma </tspan><tspan x="17.22" y="16.82">e </tspan><tspan class="cls-1" x="26.54" y="16.82">t</tspan><tspan x="30.82" y="16.82">oda a </tspan><tspan class="cls-16" x="63.55" y="16.82">r</tspan><tspan x="68.02" y="16.82">egião</tspan></text>
    <g>
      <g>
        <text class="cls-5" transform="translate(213.57 258.81) scale(.94 1)"><tspan x="0" y="0">48 99</tspan><tspan class="cls-17" x="53.72" y="0">6</tspan><tspan class="cls-7" x="65.57" y="0">2</tspan><tspan x="77.58" y="0">8-</tspan><tspan class="cls-2" x="98.01" y="0">0</tspan><tspan x="110.78" y="0">136 </tspan></text>
        <g>
          <path class="cls-4" d="M189.31,260.22l-5.97,2.01,1.94-6.09c-2.7-4.73-1.79-10.81,2.12-14.41,4.45-4.13,11.24-3.69,15.19.94,3.98,4.67,3.61,11.89-.85,16.07-3.42,3.21-8.42,3.81-12.44,1.47ZM189.56,258.26c2.59,1.76,5.66,2.07,8.56.79,2.34-1.03,4.35-3.26,5.14-6.07.49-1.76.51-3.58.03-5.34-.89-3.29-3.44-5.79-6.38-6.61-3.39-.94-6.81.18-9.09,2.81-2.9,3.35-3.17,8.35-.64,12.02l-1.12,3.55,3.51-1.15Z"/>
          <path class="cls-4" d="M197.79,251.69l2.22,1.14c.03.57.02,1.17-.31,1.63-.57.8-1.57,1.24-2.52,1.13-.59-.07-1.12-.31-1.66-.5-2.28-.8-3.78-2.36-5.13-4.4-.41-.61-.76-1.23-.97-1.95-.35-1.24-.08-2.57.88-3.41.35-.31,1.4-.54,1.63.06l1,2.53c-.38,1.03-1.28,1.25-.76,1.89.84,1.43,2.02,2.52,3.51,3.13.09.07.42.11.5.01l1.01-1.28c.1-.13.42-.09.6,0Z"/>
        </g>
      </g>
      <text class="cls-5" transform="translate(212.88 225.68) scale(.94 1)"><tspan x="0" y="0">48 3</tspan><tspan class="cls-20" x="40.86" y="0">4</tspan><tspan x="53.36" y="0">38</tspan><tspan class="cls-12" x="77.03" y="0">-</tspan><tspan class="cls-18" x="83.98" y="0">7</tspan><tspan class="cls-14" x="95.17" y="0">1</tspan><tspan class="cls-11" x="103.65" y="0">12</tspan></text>
      <path class="cls-4" d="M199.96,218.27l3.98,2.04c.05,1.02.04,2.09-.55,2.93-1.02,1.43-2.82,2.22-4.52,2.02-1.06-.12-2-.55-2.97-.89-4.08-1.43-6.76-4.22-9.19-7.86-.73-1.1-1.36-2.2-1.73-3.48-.63-2.23-.13-4.61,1.58-6.1.63-.55,2.5-.96,2.92.1l1.78,4.53c-.67,1.84-2.28,2.24-1.37,3.39,1.51,2.57,3.61,4.51,6.28,5.61.16.12.75.2.89.02l1.81-2.3c.18-.23.75-.16,1.07,0Z"/>
    </g>
    <g>
      <text class="cls-9" transform="translate(60.13 201.64) rotate(-80.72)"><tspan x="0" y="0">O</tspan></text>
      <text class="cls-9" transform="translate(62 190.61) rotate(-78.66)"><tspan x="0" y="0"> </tspan></text>
      <text class="cls-9" transform="translate(62.67 186.97) rotate(-76.68)"><tspan x="0" y="0">P</tspan></text>
      <text class="cls-9" transform="translate(65.16 176.71) rotate(-74.55)"><tspan x="0" y="0">i</tspan></text>
      <text class="cls-9" transform="translate(66.45 171.97) rotate(-72.73)"><tspan x="0" y="0">z</tspan></text>
      <text class="cls-9" transform="translate(68.88 164.15) rotate(-70.46)"><tspan x="0" y="0">z</tspan></text>
      <text class="cls-9" transform="translate(71.55 156.58) rotate(-68)"><tspan x="0" y="0">o</tspan></text>
      <text class="cls-9" transform="translate(75.22 147.5) rotate(-65.29)"><tspan x="0" y="0">n</tspan></text>
      <text class="cls-9" transform="translate(79.35 138.64) rotate(-63.24)"><tspan x="0" y="0">i</tspan></text>
      <text class="cls-9" transform="translate(81.59 134.22) rotate(-62.03)"><tspan x="0" y="0"> </tspan></text>
      <text class="cls-9" transform="translate(83.19 131.13) rotate(-60.31)"><tspan x="0" y="0">T</tspan></text>
      <text class="cls-9" transform="translate(87.69 123.32) rotate(-58.37)"><tspan x="0" y="0">i</tspan></text>
      <text class="cls-9" transform="translate(90.23 119.11) rotate(-56.31)"><tspan x="0" y="0">n</tspan></text>
      <text class="cls-9" transform="translate(95.65 111.04) rotate(-54)"><tspan x="0" y="0">t</tspan></text>
      <text class="cls-9" transform="translate(99.56 105.61) rotate(-51.79)"><tspan x="0" y="0">a</tspan></text>
      <text class="cls-9" transform="translate(105.25 98.41) rotate(-49.38)"><tspan x="0" y="0">s</tspan></text>
      <text class="cls-9" transform="translate(110.48 92.37) rotate(-47.74)"><tspan x="0" y="0"> </tspan></text>
      <text class="cls-9" transform="translate(112.95 89.58) rotate(-45.91)"><tspan x="0" y="0">é</tspan></text>
      <text class="cls-9" transform="translate(119.52 82.87) rotate(-44.07)"><tspan x="0" y="0"> </tspan></text>
      <text class="cls-9" transform="translate(122.14 80.27) rotate(-42.18)"><tspan x="0" y="0">o</tspan></text>
      <text class="cls-9" transform="translate(129.47 73.71) rotate(-40.3)"><tspan x="0" y="0"> </tspan></text>
      <text class="cls-9" transform="translate(132.28 71.28) rotate(-38.67)"><tspan x="0" y="0">s</tspan></text>
      <text class="cls-9" transform="translate(138.53 66.27) rotate(-36.27)"><tspan x="0" y="0">e</tspan></text>
      <text class="cls-9" transform="translate(146.09 60.81) rotate(-34.48)"><tspan x="0" y="0">u</tspan></text>
      <text class="cls-9" transform="translate(154.23 55.37) rotate(-31.82)"><tspan x="0" y="0"> </tspan></text>
      <text class="cls-9" transform="translate(157.34 53.38) rotate(-29.94)"><tspan x="0" y="0">p</tspan></text>
      <text class="cls-9" transform="translate(165.94 48.44) rotate(-27.3)"><tspan x="0" y="0">a</tspan></text>
      <text class="cls-9" transform="translate(174.1 44.26) rotate(-25.07)"><tspan x="0" y="0">r</tspan></text>
      <text class="cls-9" transform="translate(180.18 41.41) rotate(-23.06)"><tspan x="0" y="0">c</tspan></text>
      <text class="cls-9" transform="translate(187.23 38.39) rotate(-20.7)"><tspan x="0" y="0">e</tspan></text>
      <text class="cls-9" transform="translate(196.02 35.12) rotate(-18.7)"><tspan x="0" y="0">i</tspan></text>
      <text class="cls-9" transform="translate(200.66 33.53) rotate(-17.04)"><tspan x="0" y="0">r</tspan></text>
      <text class="cls-9" transform="translate(207.06 31.54) rotate(-14.74)"><tspan x="0" y="0">o</tspan></text>
    </g>
    <text class="cls-10" transform="translate(81.52 204.19) rotate(-80.95)"><tspan x="0" y="0">c</tspan></text>
    <text class="cls-10" transform="translate(82.7 196.63) rotate(-78.35)"><tspan x="0" y="0">e</tspan></text>
    <text class="cls-10" transform="translate(84.62 187.48) rotate(-75.84)"><tspan x="0" y="0">r</tspan></text>
    <text class="cls-10" transform="translate(86.35 180.66) rotate(-73.68)"><tspan x="0" y="0">t</tspan></text>
    <text class="cls-10" transform="translate(88.06 174.68) rotate(-71.28)"><tspan x="0" y="0">o</tspan></text>
    <text class="cls-10" transform="translate(91.27 165.39) rotate(-69.19)"><tspan x="0" y="0"> </tspan></text>
    <text class="cls-10" transform="translate(92.53 161.93) rotate(-67.08)"><tspan x="0" y="0">p</tspan></text>
    <text class="cls-10" transform="translate(96.41 152.77) rotate(-64.11)"><tspan x="0" y="0">a</tspan></text>
    <text class="cls-10" transform="translate(100.43 144.56) rotate(-61.62)"><tspan x="0" y="0">r</tspan></text>
    <text class="cls-10" transform="translate(103.44 138.92) rotate(-59.27)"><tspan x="0" y="0">a</tspan></text>
    <text class="cls-10" transform="translate(108.18 131.06) rotate(-57.26)"><tspan x="0" y="0"> </tspan></text>
    <text class="cls-10" transform="translate(110.19 127.9) rotate(-55.6)"><tspan x="0" y="0">t</tspan></text>
    <text class="cls-10" transform="translate(113.66 122.75) rotate(-53.18)"><tspan x="0" y="0">o</tspan></text>
    <text class="cls-10" transform="translate(119.51 114.94) rotate(-50.1)"><tspan x="0" y="0">d</tspan></text>
    <text class="cls-10" transform="translate(125.9 107.33) rotate(-47.11)"><tspan x="0" y="0">a</tspan></text>
    <text class="cls-10" transform="translate(132.14 100.64) rotate(-44.43)"><tspan x="0" y="0">s</tspan></text>
    <text class="cls-10" transform="translate(137.89 95.04) rotate(-42.6)"><tspan x="0" y="0"> </tspan></text>
    <text class="cls-10" transform="translate(140.56 92.53) rotate(-40.61)"><tspan x="0" y="0">a</tspan></text>
    <text class="cls-10" transform="translate(147.53 86.58) rotate(-37.95)"><tspan x="0" y="0">s</tspan></text>
    <text class="cls-10" transform="translate(153.86 81.69) rotate(-36.15)"><tspan x="0" y="0"> </tspan></text>
    <text class="cls-10" transform="translate(156.83 79.49) rotate(-34.37)"><tspan x="0" y="0">d</tspan></text>
    <text class="cls-10" transform="translate(165.05 73.91) rotate(-31.12)"><tspan x="0" y="0">e</tspan></text>
    <text class="cls-10" transform="translate(172.94 69.05) rotate(-27.44)"><tspan x="0" y="0">m</tspan></text>
    <text class="cls-10" transform="translate(185.92 62.41) rotate(-23.76)"><tspan x="0" y="0">ã</tspan></text>
    <text class="cls-10" transform="translate(194.26 58.74) rotate(-20.81)"><tspan x="0" y="0">o</tspan></text>
    <text class="cls-10" transform="translate(203.43 55.28) rotate(-18.03)"><tspan x="0" y="0">s</tspan></text>
    <text class="cls-10" transform="translate(211.04 52.83) rotate(-15.93)"><tspan x="0" y="0">!</tspan></text>
  </g>
</svg>