<?xml version="1.0" encoding="UTF-8"?>
<svg id="Layer_2" data-name="Layer 2" xmlns="http://www.w3.org/2000/svg" viewBox="0 0 511.43 133.77">
  <defs>
    <style>
      .cls-1 {
        fill: #ede9e9;
      }
    </style>
  </defs>
  <g id="Layer_1-2" data-name="Layer 1">
    <polygon class="cls-1" points="347.96 133.11 339.71 133.12 332.48 118.22 329.94 133.07 321.25 133.04 325.92 105.8 334.68 105.7 341.51 119.78 343.95 105.72 352.62 105.73 347.96 133.11"/>
    <path class="cls-1" d="M493.56,125.35c-1.86,8.08-14.76,10.12-23.26,7.08-3.57-1.28-5.53-4.66-4.46-8.35l9-.57c-.3,1.8-.29,3.67.57,4.49,1.24,1.19,3.25,1.41,4.93.9,1.13-.34,2.37-1.61,2.6-2.69.19-.89-.98-2.62-1.93-3l-8.47-3.37c-1.65-.66-3.36-2.68-3.76-4.15-.53-1.96.13-4.38,1.58-5.97,4.87-5.32,15.96-6.02,21.56-2.6,2.23,1.36,3.64,3.92,2.61,6.66l-8.66.73c.26-1.65.31-3.24-.53-4.08s-2.65-1.16-3.95-.9c-1.26.25-2.68,1.5-2.84,2.61-.15,1.06,1.23,2.48,2.35,2.92l9.19,3.56c2.7,1.04,4.13,3.83,3.46,6.73Z"/>
    <path class="cls-1" d="M433.94,128.37h-9.17s-2.29,4.77-2.29,4.77l-9.08-.16,15.5-27.2,9.87-.05,5.61,27.33-9.84.04-.6-4.72ZM433.09,122.78l-1.09-9.13-4.46,9.18,5.55-.06Z"/>
    <polygon class="cls-1" points="388.27 133.08 378.69 133.05 382.36 111.85 373.86 111.76 375.67 105.72 401.95 105.73 400.16 111.8 391.92 111.82 388.27 133.08"/>
    <polygon class="cls-1" points="253.61 133.06 243.91 133.07 247.71 111.85 239.04 111.72 241.01 105.72 267.06 105.73 265.42 111.77 257.19 111.86 253.61 133.06"/>
    <polygon class="cls-1" points="296.35 133.02 286.7 133.08 291.46 105.74 300.98 105.72 296.35 133.02"/>
    <polygon class="cls-1" points="449.97 90.25 421.35 90.27 401.1 32.36 391.3 90.27 377.55 90.2 392.03 2.43 418.98 2.43 440 60.7 450.81 2.45 465.46 2.44 449.97 90.25"/>
    <path class="cls-1" d="M192.7,84.57c-4.83,7.97-16.82,7.88-26.11,6.22l-14.7-2.62c-5.65-1.01-11.22-.18-16.52,2.07-3.13-2.73-4.25-6.57-4.77-10.4-.99-7.26,1.69-13.43,7.16-18.17l39.87-34.51c-11.31-3.06-23.69-4.55-33.95.1-3.2-4.29-4.59-9.37-3.99-14.54.59-5.06,3.91-9.15,8.93-10.5,4.42-1.19,9.15-1.37,13.71-.44l11.45,2.33c8.14,1.65,16.24,2.15,24.44-.56,6.06,7.48,7.1,18.98-.51,25.43l-29.87,24.59-14.26,12.12c12.51,2.69,25.65,4.95,37.38-1.54,4.89,5.79,5.61,14.02,1.72,20.44Z"/>
    <path class="cls-1" d="M273.03,78.21c-1.74,12.87-14.94,14.93-27.08,12.79l-15.21-2.68c-5.95-1.05-11.82-.56-17.45,1.93-3.24-2.83-4.46-6.86-4.94-11.06-.73-6.35,1.45-12.28,6.39-16.56l40.96-35.47c-11.41-3.13-23.59-4.57-34.12.07-3.25-4.19-4.6-9.41-3.94-14.63s4.45-9.53,9.81-10.64c4.36-.91,8.94-1.07,13.39-.16l14.34,2.93c7.19,1.47,14.31.97,21.19-1.14,6.34,7.75,6.68,19.28-.94,25.58l-35.11,29-8.75,7.56c12.5,2.58,25.83,4.89,37.33-1.61,3.6,3.99,4.82,8.91,4.13,14.09Z"/>
    <path class="cls-1" d="M53.28,38.09c4.56-5.77,6.23-13.61,4.61-20.57-1.73-7.42-8.95-8.9-16.5-7.25l-7.22,43.24-5.93,36.77-28.23-.03L16.09,3.17c11.39-1.15,22.63-2.13,34.05-2.19,6.83-.03,13.36.53,19.66,2.42,12.63,4.05,15.95,16.89,12.76,29.12-2.18,8.34-8.09,14.61-16.23,17.5-9.06,3.21-22.04,2.75-27.46-5.45,5.7.03,10.72-1.82,14.41-6.48Z"/>
    <path class="cls-1" d="M364.94,66.52c-9.97,19.97-31.94,28.95-53.34,24.59-11.56-2.35-19.91-11.06-22.13-22.84-2.83-15.03-.49-30.9,6.57-44.53,10.31-19.93,32.12-26.92,53.37-22.43,10.4,2.2,18.16,9.72,20.68,20.21,3.6,15,1.76,31.17-5.14,45ZM331.49,78.2c3.08-3.88,4.86-8.16,6.27-12.86,4-13.31,8.47-38.07,4.46-50.14-1.26-3.78-4.94-5.76-8.78-4.46-5.66,1.91-9.19,10.53-11.04,16.95-3.93,13.63-6.14,27.54-5.99,41.81.04,3.6.53,7.81,2.81,10.39,3.41,3.85,9.15,2.23,12.25-1.68Z"/>
    <polygon class="cls-1" points="112.85 90.29 86.13 90.21 100.74 2.43 127.46 2.46 112.85 90.29"/>
    <polygon class="cls-1" points="495.29 90.27 466.87 90.24 479.42 28.13 484.44 2.42 511.43 2.46 495.29 90.27"/>
  </g>
</svg>