<?xml version="1.0" encoding="UTF-8"?>
<svg id="Layer_2" xmlns="http://www.w3.org/2000/svg" version="1.1" xmlns:xlink="http://www.w3.org/1999/xlink" viewBox="0 0 167.5 140.1">
  <!-- Generator: Adobe Illustrator 30.4.0, SVG Export Plug-In . SVG Version: 2.1.4 Build 226)  -->
  <defs>
    <style>
      .st0 {
        fill: #1b2a6b;
      }

      .st1 {
        fill: url(#linear-gradient);
      }
    </style>
    <linearGradient id="linear-gradient" x1="18.1" y1="71.9" x2="149.8" y2="71.9" gradientTransform="translate(0 142) scale(1 -1)" gradientUnits="userSpaceOnUse">
      <stop offset="0" stop-color="#99519f"/>
      <stop offset=".2" stop-color="#4159a7"/>
      <stop offset=".3" stop-color="#059dd2"/>
      <stop offset=".5" stop-color="#76bf43"/>
      <stop offset=".7" stop-color="#f8c025"/>
      <stop offset=".8" stop-color="#f29d35"/>
      <stop offset="1" stop-color="#dd3346"/>
    </linearGradient>
  </defs>
  <g id="Layer_1-2">
    <g>
      <g>
        <path class="st0" d="M14.1,69.1c.2.2.3.5.3.9v3.5c0,.4,0,.7-.3.9s-.4.3-.8.3h-3.5v4.4c0,.4,0,.7-.3.9s-.4.3-.8.3h-3.3c-.3,0-.6-.1-.8-.3-.2-.2-.3-.5-.3-.9v-4.4H1c-.3,0-.6-.1-.8-.3C0,74.2,0,73.9,0,73.5v-3.5C0,69.6,0,69.3.3,69.1s.4-.3.8-.3h3.5v-4.4c0-.4,0-.7.3-.9.2-.2.4-.3.8-.3h3.3c.3,0,.6.1.8.3s.3.5.3.9v4.4h3.5c.3,0,.6.1.8.3Z"/>
        <path class="st0" d="M29.5,56.2v4.2c0,.8-.4,1.3-1.1,1.3h-6.1v4.1c-.1,0,0,0,0,0,.6-.2,1.4-.3,2.4-.3,2.1,0,3.5.7,4.4,2.2s1.3,3.7,1.3,6.6-.6,5.9-2,7.3c-1.3,1.4-3.2,2.1-5.8,2.1s-2.2,0-3.1-.2-1.5-.3-2-.5c-.3-.1-.5-.3-.7-.5s-.2-.4-.2-.8v-4.2c0-.6.2-.8.7-.8s.2,0,.4,0c1.2.3,2.3.4,3.5.4s1.9-.2,2.3-.6.6-1.2.6-2.4-.1-1.4-.5-1.7c-.3-.3-.8-.4-1.5-.4s-.9,0-1.3.3c-.2.1-.5.2-.8.2s-.3,0-.4,0l-2.1-.4c-.3,0-.5-.2-.6-.4s-.2-.5-.2-1l.3-14.3c0-.8.4-1.2,1.1-1.2h10.3c.7,0,1.1.4,1.1,1.3h0Z"/>
        <path class="st0" d="M44.3,55.2c.2.2.3.5.5.9l2.6,8.9h.1l2.6-8.9c.1-.4.3-.7.5-.9s.5-.2.9-.2h4.4c.7,0,1.1.4,1.1,1.3v25.8c0,.8-.4,1.3-1.1,1.3h-4.2c-.7,0-1.1-.4-1.1-1.3v-13h0l-1.9,6.5c-.1.4-.2.6-.4.8-.2.2-.4.2-.7.2h-.1c-.3,0-.5,0-.7-.2s-.3-.4-.4-.8l-1.9-6.5h0v13c0,.8-.4,1.3-1.1,1.3h-4.1c-.7,0-1.1-.4-1.1-1.3v-25.8c0-.8.4-1.3,1.1-1.3h4.4c.4,0,.7,0,.9.2Z"/>
        <path class="st0" d="M65.9,56.2v25.8c0,.8-.4,1.3-1.1,1.3h-4.2c-.7,0-1.1-.4-1.1-1.3v-25.8c0-.8.4-1.3,1.1-1.3h4.2c.7,0,1.1.4,1.1,1.3Z"/>
        <path class="st0" d="M74.9,56.2v20.3h4.5c.7,0,1.1.4,1.1,1.3v4.2c0,.8-.4,1.3-1.1,1.3h-9.8c-.7,0-1.1-.4-1.1-1.3v-25.8c0-.8.4-1.3,1.1-1.3h4.2c.7,0,1.1.4,1.1,1.3Z"/>
        <path class="st0" d="M99.8,55c.4.1.7.3.8.5s.3.6.3,1v4c0,.4-.1.7-.3.9s-.5.2-.9.1c-.7-.2-1.3-.2-2.1-.2-1.1,0-1.8.2-2.3.6-.5.4-.8,1.1-1,2.2s-.3,2.7-.3,5,0,3.9.3,5c.2,1.1.5,1.8,1,2.2s1.3.6,2.4.6,1.5,0,2.1-.2c0,0,.2,0,.3,0,.3,0,.5,0,.7.3.2.2.3.5.3.8v4c0,.4,0,.8-.3,1-.2.2-.5.4-.8.5-1.1.3-2.2.4-3.5.4-2.3,0-4-.4-5.3-1.2-1.3-.8-2.2-2.2-2.8-4.3s-.9-5.1-.9-9.1.3-7,.9-9.1,1.5-3.5,2.8-4.3,3-1.2,5.2-1.2,2.4.2,3.5.4Z"/>
        <path class="st0" d="M115.4,55.8c1.2.8,2.1,2.2,2.6,4.3s.9,5.1.9,9-.3,6.9-.9,9-1.5,3.6-2.6,4.3c-1.2.8-2.7,1.2-4.7,1.2s-3.5-.4-4.7-1.2-2.1-2.2-2.6-4.3-.9-5.1-.9-9,.3-6.9.9-9,1.5-3.5,2.6-4.3,2.7-1.2,4.7-1.2,3.5.4,4.7,1.2ZM111.8,76.5c.2-.4.4-1.1.5-2.2s.1-2.8.1-5.2,0-4.1-.1-5.2-.2-1.8-.5-2.2-.6-.5-1-.5-.8.2-1,.5c-.2.4-.4,1.1-.5,2.2,0,1.1-.1,2.8-.1,5.2s0,4.1.1,5.2.2,1.8.5,2.2.6.5,1,.5.8-.2,1-.5Z"/>
        <path class="st0" d="M136.9,82.3c0,.7-.3,1-1,1h-4.1c-.4,0-.8,0-1-.2-.2-.2-.4-.4-.6-.9l-2.5-7.2h-.2v7c0,.8-.4,1.3-1.1,1.3h-4.2c-.7,0-1.1-.4-1.1-1.3v-25.8c0-.8.4-1.3,1.1-1.3h6.2c2.1,0,3.8.3,4.9,1s2,1.7,2.6,3.1c.5,1.4.8,3.4.8,5.9s-.2,4.2-.7,5.6c-.5,1.4-1.2,2.5-2.2,3.2h0s2.9,7.9,2.9,7.9c0,.2.1.4.1.7h0ZM127.6,68.5h.6c.8,0,1.4-.2,1.6-.7s.4-1.4.4-2.7-.1-2.2-.4-2.7c-.3-.5-.8-.7-1.6-.7h-.6s0,6.8,0,6.8Z"/>
        <path class="st0" d="M152.1,56.2v4.2c0,.8-.4,1.3-1.1,1.3h-5.6v3.9h5.2c.7,0,1.1.4,1.1,1.3v4.1c0,.8-.4,1.3-1.1,1.3h-5.2v4.4h5.8c.7,0,1.1.4,1.1,1.3v4.2c0,.8-.4,1.3-1.1,1.3h-11c-.7,0-1.1-.4-1.1-1.3v-25.8c0-.8.4-1.3,1.1-1.3h10.9c.7,0,1.1.4,1.1,1.3h0Z"/>
        <path class="st0" d="M163.9,54.8c.8.1,1.4.2,1.8.4.4.2.7.3.8.5s.2.5.2,1v3.9c0,.8-.4,1.1-1.4,1-1.2-.2-2-.3-2.4-.3-.9,0-1.5.1-1.8.4-.4.3-.5.7-.5,1.3s.2,1.3.6,1.8c.4.5,1.1,1.2,1.9,1.9,1.6,1.4,2.7,2.7,3.4,4,.7,1.2,1,2.8,1,4.7,0,2.8-.6,4.9-1.9,6.2-1.3,1.3-3.2,2-5.9,2s-1.7,0-2.6-.2-1.6-.3-2-.4c-.4-.2-.7-.3-.8-.5-.1-.2-.2-.5-.2-1v-3.9c0-.7.3-1,.9-1s.3,0,.4,0c1.1.2,2.1.4,2.9.4,1.7,0,2.5-.6,2.5-1.9s-.2-1.1-.5-1.6-1.1-1.2-2.1-2c-1.4-1-2.4-2.2-3.2-3.5s-1.1-3.1-1.1-5.4.6-4.8,1.8-6.1,3.1-1.9,5.7-1.9,1.6,0,2.3.2h0Z"/>
      </g>
      <path class="st1" d="M24,46.2h-5.9C27.9,19.3,53.7,0,84,0s56.1,19.3,65.9,46.2h-5.9c-9.5-23.8-32.8-40.7-60-40.7S33.5,22.4,24,46.2ZM84,134.6c-27.2,0-50.5-16.9-60-40.7h-5.9c9.8,26.9,35.6,46.2,65.9,46.2s56.1-19.3,65.9-46.2h-5.9c-9.5,23.8-32.8,40.7-60,40.7Z"/>
    </g>
  </g>
</svg>