<?xml version="1.0" encoding="UTF-8"?>
<svg id="Layer_2" data-name="Layer 2" xmlns="http://www.w3.org/2000/svg" viewBox="0 0 181.63 154.13">
  <defs>
    <style>
      .cls-1 {
        fill: #fff;
      }
    </style>
  </defs>
  <g id="Layer_1-2" data-name="Layer 1">
    <g>
      <path class="cls-1" d="M139.47,37.07l-8.46,4.78c-18.1-16.48-41.76-20.4-63.92-10.14-7.52,3.48-14.14,8.11-19.18,14.73-14.52,19.1-11.17,49.35.91,69.54-5.68.57-10.95,1.51-16.4,3.24-2.2-4.6-3.91-9.24-5.42-14.3l-4.08.66c-3.55.17-3.05-2.13-4.22-4.85l-8.43,1.77c-.75.16-2.31-.7-2.47-1.56-3.04-16.07-2-32.44,3.37-47.89C19.68,28.6,38.53,11.25,63.13,3.65c32.52-10.05,66.49,1.2,87.97,27.37l-2.63,1.34C132.45,13.12,108.44,1.59,83.31,3.02c-18.43,1.05-35.8,7.99-49.46,20.38-13.44,12.19-21.43,28.91-23.85,46.83-1.35,9.97-1.47,19.39.62,29.28l7.42-1.68c-.23-1.6-.68-3.58.03-4.78,1.09-1.83,3.42-1.98,5.71-2.32-3.12-26.26,5.13-52.38,28.88-66.15,14.64-8.49,31.61-11.42,48.35-8.62,14.85,2.43,28.06,9.42,38.46,21.1Z"/>
      <path class="cls-1" d="M0,154.13c5.23-13.61,16.4-23.63,29.88-28.43,10.1-3.6,20.45-4.78,31.17-4.47,10.73.07,22.11,3.67,31.9,4.08,11.39.48,22.47-1.01,33.35-4.12,13.09-3.75,23.93-11.6,31.69-22.71,3.11-4.45,5.28-9,7.85-14.19,4.5,25.85-7.25,44.78-31.75,53.26-10.31,3.57-20.78,5.17-31.76,5.41-20.91.47-37.43-5.48-57.63-5.34-16.59-.3-31.68,5.35-44.72,16.52Z"/>
      <path class="cls-1" d="M146.79,96.13c.15-10.01.19-19.42-1.72-28.99l-2.5-8.01,6.67-3.85,1.83,6.22c1.69-.21,3.87-.57,5.46-.04,1.44.47,1.77,2.36,1.84,4.18l6.31-1.05c-1.44-5.57-3.44-10.07-5.69-15.06l2.56-1.4c2.63,5.56,4.66,10.88,6.31,16.77.29,1.02-.89,2.25-1.72,2.39l-7.41,1.29.26,3.15c.11,1.34-.36,3.01-1.95,3.29l-4.24.75c-.73,6.86-1.23,15.35-6,20.35Z"/>
      <path class="cls-1" d="M104.94,92.24l-20.22-36.64c-.85-1.54-.32-3.17,1.09-3.94l9.55-5.22c4.23-2.31,9.07-2.45,13.16.51,3.98,2.88,5.85,8.66,9.76,6.46l49.93-28.03c4.66-2.62,9.73-4.12,12.43-.11s-.6,8.38-5.25,10.98l-51.03,28.56c-1.88,1.05-2.02,3.64-1.16,5.36,3.53,7.03.84,14.95-5.97,18.64l-8.51,4.6c-1.1.59-3.03.23-3.79-1.16ZM174.05,32.34c.79-.54,1.02-2.59.48-3.28-1.79-2.3-6.88.99-10.28,3.36-.82.57-1.22,2.2-.83,2.99,1.39,2.82,7-.58,10.63-3.07ZM96.8,50.26l-2.56,1.42,19.19,34.57,2.56-1.42-19.19-34.57ZM91.19,53.43l-2.58,1.43,19.12,34.51,2.58-1.43-19.12-34.51Z"/>
      <path class="cls-1" d="M69.17,89.5c-.8-.26-1.7-1.21-2.04-1.99l9.93-5.46-10.63,3.62-.88-1.38,15.25-7.95c-5.87,1.46-10.85,3.53-16.52,5.51-.29-.12-.75-.97-.45-1.16l3.48-2.26-4.37,1.1-1.32-1.42,17.09-9.58-18.69,7.07-.22-.78,4.27-2.64-4.84,1.35-1.04-2.33c4.49-1.6,8.46-2.67,12.43-4.94,4.12-2.36,7.93-5.03,11.91-7.9l19.18,34.53c-7.57,5.35-15.23,10.54-23.32,15.12-.7-.91-.21-1.35.68-2.17l-1.89.46-2.15-2.65,8.6-4.79c-3.22.61-6.13,1.83-9.17,2.94-.55-.22-1.15-1.15-1.51-2.01l13.16-7.09c-5.06,1.21-9.27,3.1-14.15,4.9-.25-.42-.57-1.33-.69-1.98l17.74-9.85c-6.59,2.08-12.32,4.73-18.62,7.27l-.73-.57c-.18-.14.28-.79.43-.96l10.73-6.09-11.65,4.09Z"/>
    </g>
  </g>
</svg>