<?xml version="1.0" encoding="UTF-8"?>
<svg id="Layer_2" data-name="Layer 2" xmlns="http://www.w3.org/2000/svg" viewBox="0 0 116.01 77.3">
  <defs>
    <style>
      .cls-1 {
        fill: #e41e26;
      }
    </style>
  </defs>
  <g id="Layer_1-2" data-name="Layer 1">
    <g>
      <path class="cls-1" d="M79.32,67.65h-41.69c-1.36,5.53-6,9.58-11.73,9.65-5.57.07-9.77-4.1-9.91-9.62l-5.14-.07c-3.36-.04-6.53-3.21-6.15-6.75l.89-8.19c.1-.91,1.54-2,2.37-1.97,1.31.04,2.16.92,2.64,2.45h63.14s5.64-46.13,5.64-46.13c.13-1.07-.67-1.95-1.67-2.11l-59.23.05c-3.05,0-1.95,5.89-3.92,6.91-.74.38-2.48.19-2.97-.38s-.67-2.09-.62-2.99C11.27,3.57,14.54,0,19.57,0h57.85c4.21,0,7.26,3.33,6.82,7.46l-.49,4.55,15.79.11c4.56.03,8.37,3.19,9.76,7.37l5.44,16.37c.9,2.71,1.52,5.81,1.16,8.69l-2.03,16.53c-.44,3.6-3.84,6.47-7.38,6.52l-5.55.08c-1.32,5.29-5.68,9.32-11.22,9.6s-10.16-3.57-10.41-9.64ZM90.32,36.3l1.14-9.8c.33-2.86,2.63-4.76,5.43-4.77l7.9-.02c-.62-2.85-2.92-4.72-5.63-4.72l-16.07-.03-4.43,36.2h31.22c.57-3.95,1.03-8,1.18-12.02h-16.03c-2.49.01-5.07-1.92-4.73-4.84ZM109.68,36.2l-3.14-9.54h-10.13s-1.16,9.56-1.16,9.56l14.43-.02ZM17,62.66c1.42-2.2,2.1-3.01,3.5-4.6l-10.46.02c-.63,1.41-.76,3.68.36,4.56l6.59.02ZM72.52,62.74l.5-4.67h-38.16c1.19,1.48,1.93,2.69,2.61,4.65l35.04.03ZM80.38,62.47l3.42-4.38-5.77-.02-.51,4.74,2.85-.33ZM106.93,62.52c2.09-.33,2.51-2.83,2.19-4.43l-10.82-.02,2.76,4.66c1.66.03,4.09.08,5.87-.2ZM26.43,72.38c3.28-.35,5.76-2.79,6.43-5.82s-1.45-6.09-4.77-6.11c-3.76-.02-6.94,2.98-7.2,6.72-.22,3.15,2.26,5.56,5.55,5.21ZM89.45,72.39c3.52-.17,6.32-2.9,6.81-6.19.45-3.06-1.66-5.72-4.8-5.75-3.61-.04-6.69,2.73-7.2,6.26-.46,3.19,1.78,5.86,5.19,5.69Z"/>
      <path class="cls-1" d="M25.1,21.86H5.48c-1.22,0-2.41-1.02-2.61-2.06-.22-1.16.8-2.84,2.13-2.84h20.02c1.01-.01,2.16,1.21,2.25,2.04.15,1.3-.68,2.41-2.16,2.86Z"/>
      <path class="cls-1" d="M19.11,45.93H2.73c-1.36,0-2.47-.87-2.7-2.08s.88-2.82,2.34-2.82h17.13c1.26-.01,2.42,1.43,2.39,2.38-.05,1.61-1.17,2.53-2.78,2.53Z"/>
      <path class="cls-1" d="M20.95,33.89h-11.02c-1.19.01-2.38-1.22-2.46-2.21-.1-1.35,1.01-2.7,2.48-2.7h11.01c1.18,0,2.34,1.23,2.41,2.21.1,1.31-.99,2.69-2.44,2.7Z"/>
    </g>
  </g>
</svg>